<svg width="296" height="73" viewBox="0 0 296 73" fill="none" xmlns="http://www.w3.org/2000/svg">
<path fill-rule="evenodd" clip-rule="evenodd" d="M19.0761 35.5838C18.3651 35.5838 17.6697 35.6575 16.9928 35.8079L15.8392 36.0643L15.6709 45.6548L16.8985 45.9003C17.2061 45.9618 17.5028 46.0232 17.7887 46.0845L17.8463 46.0968L17.9047 46.1046C18.2791 46.1545 18.649 46.1805 19.0133 46.1805C19.5464 46.1805 20.1081 46.1299 20.6943 46.0361L20.723 46.0316L20.7515 46.0259C21.4404 45.8881 22.0906 45.6389 22.6958 45.2813L22.7171 45.2687L22.738 45.2554C23.3923 44.8391 23.9255 44.2898 24.3325 43.6274C24.8454 42.8298 25.0337 41.8837 25.0337 40.9136C25.0337 39.939 24.8438 38.9973 24.3474 38.1925C23.9521 37.5209 23.4321 36.9558 22.7755 36.5441C22.1701 36.1445 21.5029 35.8832 20.7871 35.7645C20.1965 35.6479 19.6243 35.5838 19.0761 35.5838ZM18.7953 38.5893L18.7149 43.1714C18.8174 43.1775 18.9168 43.1805 19.0133 43.1805C19.3516 43.1805 19.7425 43.1489 20.1899 43.0786C20.529 43.0079 20.8462 42.8864 21.1473 42.7116C21.3987 42.5476 21.6085 42.3328 21.7815 42.0485L21.7937 42.0286L21.8064 42.0091C21.9113 41.8483 22.0337 41.5256 22.0337 40.9136C22.0337 40.3059 21.9129 39.9576 21.7908 39.7623L21.7787 39.7429L21.7672 39.7231C21.5822 39.406 21.3805 39.2087 21.1746 39.0812L21.1531 39.0679L21.1321 39.0539C20.8725 38.8808 20.5942 38.7717 20.2831 38.7219L20.2544 38.7174L20.2259 38.7117C19.7798 38.6224 19.3985 38.5838 19.0761 38.5838C18.9816 38.5838 18.888 38.5857 18.7953 38.5893Z" fill="#1A1275"/>
<path fill-rule="evenodd" clip-rule="evenodd" d="M75.7427 15.1108C73.6621 13.0339 71.1603 11.4655 68.2876 10.3876C65.4152 9.30195 62.2882 8.78239 58.9426 8.78239C56.7777 8.78239 54.6888 9.08366 52.6899 9.7006C50.7394 10.3026 48.9106 11.1492 47.2123 12.241L47.204 12.2464L47.1958 12.2517C45.532 13.3368 44.0272 14.6259 42.6843 16.1126C41.7457 17.1518 40.9015 18.262 40.1525 19.4413C40.0358 19.0173 39.9001 18.6018 39.7446 18.1956C39.1202 16.5115 38.2234 14.9976 37.0463 13.6834C35.9276 12.4115 34.6179 11.3505 33.1327 10.5031C31.7196 9.67641 30.2081 9.01395 28.6054 8.51162C27.0232 8.0157 25.3811 7.66492 23.683 7.45541C22.0563 7.25218 20.4365 7.15004 18.8244 7.15004C17.4404 7.15004 16.0221 7.22903 14.5705 7.38459C13.1185 7.51942 11.6597 7.73133 10.1945 8.01932C8.73945 8.28861 7.3056 8.63576 5.8935 9.06079C4.48423 9.46421 3.14005 9.92698 1.86337 10.4513L0 11.2166L0.0688074 55.5287L1.7432 56.3512C3.09445 57.015 4.51813 57.5668 6.01047 58.0099L6.03121 58.016L6.05203 58.0219C7.49705 58.4283 8.96387 58.7554 10.452 59.0035C11.9282 59.2495 13.4065 59.4179 14.8865 59.5084C16.3494 59.6171 17.767 59.6721 19.1383 59.6721C20.535 59.6721 22.0179 59.6167 23.584 59.5079C25.2482 59.3938 26.9004 59.1658 28.5398 58.8243C30.2069 58.4769 31.8144 58.0001 33.3595 57.3915L33.3704 57.3872L33.3812 57.3828C35.0412 56.7139 36.5464 55.8411 37.8712 54.7501C39.2626 53.6042 40.3695 52.2092 41.1813 50.5916C41.5824 49.8116 41.8827 48.9886 42.0929 48.1314C42.3671 48.4464 42.6499 48.7549 42.9414 49.0566L42.9594 49.0752L42.9777 49.0935C44.3704 50.4862 45.92 51.6871 47.6211 52.6933L47.6346 52.7014L47.6483 52.7092C49.354 53.6943 51.1739 54.4592 53.1005 55.0063L53.1098 55.0089C55.1041 55.5683 57.1775 55.8423 59.3193 55.8423C61.5261 55.8423 63.6498 55.5572 65.6775 54.9709L65.6935 54.9663L65.7094 54.9615C67.6883 54.3654 69.5341 53.5363 71.2353 52.4681C72.948 51.4057 74.486 50.1343 75.8423 48.6572C76.7196 47.7029 77.5096 46.6874 78.2108 45.612L77.5178 58.9527L97.2851 56.7726L92.5564 70.1425L97.7351 72.7275L112.703 54.586L112.856 58.3192L131.868 57.328L132.754 34.4936L132.823 32.733L132.997 28.2295L142.394 27.8511L142.847 8.65118L103.901 8.72264L104.097 7.25515L80.5793 0.019043L79.5285 20.247C78.5303 18.3236 77.2704 16.6053 75.7427 15.1108ZM100.21 36.4054L111.944 36.0483L111.664 29.1927L102.101 29.7061L102.336 20.4631L100.21 36.4054ZM62.0088 30.9687L61.9964 30.9263C61.8411 30.3959 61.6261 29.9864 61.3733 29.6599L61.3593 29.6418L61.3455 29.6234C61.1141 29.3149 60.8301 29.07 60.4617 28.8756L60.4173 28.8521L60.3736 28.8272C60.1552 28.7024 59.8347 28.5946 59.3193 28.5946C58.7017 28.5946 58.2602 28.7048 57.9349 28.8543C57.5295 29.0406 57.1939 29.2881 56.9052 29.6084C56.6484 29.8954 56.4228 30.265 56.2493 30.7607L56.2453 30.772L56.2413 30.7833C56.0721 31.2546 55.9782 31.7783 55.9782 32.3752C55.9782 32.9644 56.0619 33.5662 56.2395 34.1879C56.4027 34.7589 56.6376 35.2451 56.9359 35.6677C57.1982 36.0393 57.5032 36.3222 57.8632 36.5413C58.1005 36.6764 58.4314 36.7835 58.9426 36.7835C59.5278 36.7835 59.9441 36.6752 60.2536 36.5273C60.6844 36.3095 61.0138 36.0456 61.2754 35.7383C61.578 35.3613 61.8238 34.9191 62.0051 34.3879C62.1899 33.8469 62.2837 33.2853 62.2837 32.6891C62.2837 32.0969 62.195 31.5418 62.0225 31.0108L62.0088 30.9687ZM19.8923 21.96C19.3211 21.96 18.7606 22.046 18.2163 22.2179C17.7657 22.3602 17.326 22.5266 16.8973 22.7171L16.0327 23.1014L15.7771 32.5567H17.3182C17.8789 32.5567 18.5382 32.5084 19.2828 32.4208C19.7804 32.3623 20.268 32.2647 20.7446 32.1274C21.0789 32.031 21.4068 31.9154 21.728 31.7808L21.7386 31.7763L21.7492 31.7717C22.6232 31.3893 23.3759 30.8342 23.9882 30.1107L23.9971 30.1001L24.0059 30.0893C24.7457 29.1814 25.0337 28.0466 25.0337 26.8502C25.0337 26.0427 24.8669 25.2533 24.4518 24.5546C24.1086 23.9579 23.6635 23.4443 23.1103 23.0409C22.609 22.6608 22.0502 22.3832 21.4442 22.2088C20.9289 22.055 20.4067 21.96 19.8923 21.96ZM16.9928 35.8079C17.6697 35.6575 18.3651 35.5838 19.0761 35.5838C19.6243 35.5838 20.1965 35.6479 20.7871 35.7645C21.5029 35.8832 22.1701 36.1445 22.7755 36.5441C23.4321 36.9558 23.9521 37.5209 24.3474 38.1925C24.8438 38.9973 25.0337 39.939 25.0337 40.9136C25.0337 41.8837 24.8454 42.8298 24.3325 43.6274C23.9255 44.2898 23.3923 44.8391 22.738 45.2554L22.7171 45.2687L22.6958 45.2813C22.0906 45.6389 21.4404 45.8881 20.7515 46.0259L20.723 46.0316L20.6943 46.0361C20.1081 46.1299 19.5464 46.1805 19.0133 46.1805C18.649 46.1805 18.2791 46.1545 17.9047 46.1046L17.8463 46.0968L17.7887 46.0845C17.5028 46.0232 17.2061 45.9618 16.8985 45.9003L15.6709 45.6548L15.8392 36.0643L16.9928 35.8079Z" fill="#1A1275"/>
<path fill-rule="evenodd" clip-rule="evenodd" d="M19.8923 21.96C19.3211 21.96 18.7606 22.046 18.2163 22.2179C17.7657 22.3602 17.326 22.5266 16.8973 22.7171L16.0327 23.1014L15.7771 32.5567H17.3182C17.8789 32.5567 18.5382 32.5084 19.2828 32.4208C19.7804 32.3623 20.268 32.2647 20.7446 32.1274C21.0789 32.031 21.4068 31.9154 21.728 31.7808L21.7386 31.7763L21.7492 31.7717C22.6232 31.3893 23.3759 30.8342 23.9882 30.1107L23.9971 30.1001L24.0059 30.0893C24.7457 29.1814 25.0337 28.0466 25.0337 26.8502C25.0337 26.0427 24.8669 25.2533 24.4518 24.5546C24.1086 23.9579 23.6635 23.4443 23.1103 23.0409C22.609 22.6608 22.0502 22.3832 21.4442 22.2088C20.9289 22.055 20.4067 21.96 19.8923 21.96ZM19.8923 24.96C19.6264 24.96 19.3707 24.9994 19.1197 25.0787C19.0726 25.0936 19.0258 25.1087 18.9791 25.1243L18.8622 29.4495L18.9322 29.4414C19.2708 29.4016 19.5977 29.3358 19.914 29.2446C20.1323 29.1817 20.3465 29.1065 20.5569 29.0187C21.0125 28.8177 21.3834 28.5411 21.6879 28.1848C21.8661 27.961 22.0337 27.5689 22.0337 26.8502C22.0337 26.4495 21.9517 26.2187 21.8708 26.0838L21.8625 26.0701L21.8546 26.0563C21.7 25.7857 21.5253 25.5967 21.337 25.4608L21.3204 25.4488L21.3041 25.4363C21.1006 25.2807 20.873 25.1656 20.6103 25.0906L20.6008 25.0879L20.5914 25.0851C20.2725 24.9894 20.0445 24.96 19.8923 24.96Z" fill="#1A1275"/>
<path d="M39.4797 44.7434C39.4797 46.4804 39.1554 47.9767 38.5066 49.2324C37.8788 50.4881 37.0312 51.5554 35.9639 52.4343C34.8966 53.3133 33.6619 54.0353 32.2597 54.6003C30.8785 55.1444 29.4345 55.5735 27.9277 55.8874C26.4209 56.2013 24.9037 56.4106 23.376 56.5152C21.8692 56.6198 20.4566 56.6722 19.1381 56.6722C17.8406 56.6722 16.4908 56.6198 15.0886 56.5152C13.7074 56.4315 12.3262 56.2745 10.945 56.0443C9.56373 55.8141 8.20344 55.5107 6.86407 55.134C5.52471 54.7364 4.25859 54.2446 3.06571 53.6586L3.00293 13.2265C4.17488 12.7451 5.42007 12.3161 6.73851 11.9394C8.05695 11.5418 9.39631 11.2174 10.7566 10.9663C12.1378 10.6942 13.5086 10.4954 14.8689 10.3698C16.2292 10.2234 17.5476 10.1501 18.8242 10.1501C20.3101 10.1501 21.8064 10.2443 23.3132 10.4326C24.8409 10.621 26.3058 10.9349 27.708 11.3744C29.1101 11.8138 30.4181 12.3894 31.6319 13.1009C32.8457 13.7915 33.9025 14.6495 34.8024 15.675C35.7232 16.7004 36.4348 17.8933 36.937 19.2536C37.4602 20.6139 37.7218 22.1835 37.7218 23.9623C37.7218 25.1343 37.5544 26.233 37.2196 27.2584C36.8847 28.2839 36.4034 29.2047 35.7756 30.0209C35.1477 30.837 34.3839 31.5381 33.484 32.1241C32.5841 32.6891 31.5691 33.1077 30.439 33.3797C31.7993 33.7355 33.034 34.2587 34.1432 34.9493C35.2733 35.6399 36.2255 36.477 36.9998 37.4606C37.7951 38.4442 38.402 39.5534 38.8205 40.7881C39.26 42.0228 39.4797 43.3413 39.4797 44.7434ZM23.5329 26.8503C23.5329 26.2434 23.4073 25.7307 23.1562 25.3122C22.9051 24.8727 22.5912 24.5169 22.2145 24.2448C21.8587 23.9728 21.4611 23.774 21.0216 23.6484C20.603 23.5228 20.2263 23.4601 19.8915 23.4601C19.473 23.4601 19.0649 23.5228 18.6672 23.6484C18.2696 23.774 17.8825 23.9205 17.5058 24.0879L17.3174 31.0568C17.7987 31.0568 18.3952 31.0149 19.1067 30.9312C19.8183 30.8475 20.4984 30.6696 21.1472 30.3976C21.8168 30.1046 22.3819 29.686 22.8423 29.1419C23.3027 28.5769 23.5329 27.813 23.5329 26.8503ZM19.0753 37.0839C18.4684 37.0839 17.8825 37.1467 17.3174 37.2723L17.1918 44.4295C17.5058 44.4923 17.8092 44.5551 18.1022 44.6179C18.4161 44.6597 18.7196 44.6806 19.0125 44.6806C19.452 44.6806 19.9334 44.6388 20.4566 44.5551C20.9797 44.4504 21.4715 44.2621 21.9319 43.99C22.3924 43.697 22.7691 43.3099 23.062 42.8286C23.376 42.3472 23.5329 41.7089 23.5329 40.9137C23.5329 40.1184 23.376 39.4697 23.062 38.9674C22.7691 38.4651 22.4028 38.078 21.9633 37.8059C21.5239 37.5129 21.0425 37.3246 20.5193 37.2409C19.9961 37.1362 19.5148 37.0839 19.0753 37.0839Z" fill="#8B5CF6"/>
<path d="M79.2213 31.873C79.2213 32.0855 79.2185 32.2973 79.213 32.5084C79.2022 32.925 79.1808 33.3385 79.1486 33.749C79.0511 34.9933 78.8556 36.2096 78.562 37.3978C78.1226 39.1558 77.4843 40.809 76.6472 42.3577C75.831 43.9063 74.8265 45.3294 73.6336 46.6269C72.4616 47.9035 71.1327 49.0022 69.6469 49.923C68.1819 50.8438 66.581 51.5658 64.844 52.089C63.107 52.5913 61.2654 52.8424 59.3191 52.8424C57.4356 52.8424 55.6359 52.6017 53.9198 52.1204C52.2247 51.6391 50.6342 50.9694 49.1483 50.1114C47.6624 49.2324 46.3126 48.186 45.0988 46.9722C43.9059 45.7375 42.8805 44.3772 42.0224 42.8913C41.1853 41.3845 40.5261 39.7731 40.0448 38.0571C39.5844 36.341 39.3542 34.5517 39.3542 32.6891C39.3542 30.8684 39.5739 29.0896 40.0134 27.3526C40.4529 25.5947 41.0807 23.9414 41.8969 22.3928C42.734 20.8441 43.7385 19.421 44.9105 18.1235C46.0824 16.826 47.3904 15.7064 48.8344 14.7646C50.2993 13.8229 51.8793 13.0904 53.5745 12.5672C55.2696 12.0441 57.0589 11.7825 58.9424 11.7825C61.9769 11.7825 64.7394 12.2533 67.2297 13.1951C69.7411 14.1368 71.8757 15.4866 73.6336 17.2446C75.4124 18.9816 76.7832 21.0952 77.7459 23.5856C78.7295 26.0551 79.2213 28.8175 79.2213 31.873ZM65.2835 32.6891C65.2835 31.7892 65.1474 30.9207 64.8754 30.0836C64.6243 29.2256 64.2476 28.4722 63.7453 27.8235C63.243 27.1538 62.6152 26.6201 61.8618 26.2225C61.1293 25.8039 60.2818 25.5947 59.3191 25.5947C58.3355 25.5947 57.4566 25.7726 56.6822 26.1283C55.9079 26.4841 55.2382 26.9759 54.6732 27.6037C54.1291 28.2106 53.7105 28.9326 53.4175 29.7697C53.1245 30.5859 52.9781 31.4544 52.9781 32.3752C52.9781 33.2542 53.1036 34.1331 53.3547 35.0121C53.6059 35.8911 53.9826 36.6863 54.4848 37.3978C54.9871 38.1094 55.6045 38.6849 56.3369 39.1244C57.0903 39.5638 57.9588 39.7836 58.9424 39.7836C59.926 39.7836 60.805 39.5952 61.5793 39.2185C62.3745 38.8209 63.0442 38.2977 63.5883 37.649C64.1325 36.9793 64.551 36.2154 64.844 35.3574C65.137 34.4994 65.2835 33.6099 65.2835 32.6891Z" fill="#8B5CF6"/>
<path fill-rule="evenodd" clip-rule="evenodd" d="M139.461 24.9668L139.775 11.6569L105.559 11.7197L105.182 26.5364L114.537 26.0342L114.956 36.2781L127.713 35.89L115.544 50.6381L115.729 55.1654L128.977 54.4748L130.107 25.3435L139.461 24.9668ZM79.1486 33.749L79.213 32.5084C79.2022 32.925 79.1808 33.3385 79.1486 33.749Z" fill="#8B5CF6"/>
<path d="M80.6967 55.5839L101.707 53.2667L96.2688 68.6428L96.9396 68.9776L121.882 38.7473L96.7691 39.5115L100.787 9.37578L83.3754 4.01831L80.6967 55.5839Z" fill="#8B5CF6"/>
<path fill-rule="evenodd" clip-rule="evenodd" d="M146.954 24.786L161.624 23.6362L167.368 35.5632L161.721 48.6924L146.345 47.5233L140.579 34.8365L146.954 24.786Z" fill="#1A1275"/>
<path d="M159.813 26.7874L148.684 27.6595L143.982 35.0727L148.342 44.6663L159.813 45.5385L164.073 35.6334L159.813 26.7874Z" fill="#B7B7B7"/>
<path fill-rule="evenodd" clip-rule="evenodd" d="M208.079 18.7806C207.945 19.9551 207.827 21.1358 207.726 22.3228C207.675 22.9215 207.628 23.5218 207.585 24.1237C207.566 24.4017 207.547 24.6796 207.529 24.9574C207.406 26.8799 207.326 28.8015 207.289 30.722C207.269 32.8971 207.282 35.0034 207.327 37.0411C207.357 38.4222 207.547 39.8451 207.897 41.3098C208.269 42.774 208.776 44.2125 209.419 45.6254C210.084 47.0151 210.884 48.3453 211.818 49.6158C212.751 50.8637 213.795 51.9619 214.949 52.9105C216.102 53.8364 217.364 54.5787 218.735 55.1374C220.106 55.6734 221.562 55.9358 223.102 55.9244C223.759 55.9326 224.449 55.8834 225.171 55.7768C225.893 55.6476 226.591 55.4623 227.266 55.2209C227.338 55.1924 227.41 55.1632 227.482 55.1331C228.074 54.8847 228.629 54.583 229.147 54.228C229.749 53.8296 230.271 53.365 230.713 52.8342L230.217 58.0778L244.119 56.7515C244.599 48.7447 245.114 40.7938 245.665 32.8987C246.145 25.9833 246.737 19.0396 247.441 12.0674C247.543 11.0569 247.647 10.0457 247.754 9.03393C246.742 9.1159 245.73 9.18044 244.717 9.22755C244.576 9.23413 244.434 9.24037 244.293 9.24627L240.897 9.32126C239.425 9.35375 237.965 9.37468 236.515 9.38403C236.062 9.38696 235.608 9.3888 235.153 9.38956C234.152 9.39124 233.144 9.38768 232.132 9.37889C232.187 9.83071 232.231 10.2715 232.263 10.7011C232.295 11.1308 232.316 11.5721 232.326 12.0249C232.328 12.1363 232.331 12.2549 232.332 12.3807C232.341 13.0468 232.338 13.9136 232.323 14.981C232.329 16.2494 232.304 17.6884 232.249 19.2979C232.216 20.8843 232.14 22.5849 232.022 24.3996C231.903 26.2144 231.728 28.0191 231.496 29.8138C231.286 31.5853 231.006 33.2904 230.657 34.929C230.331 36.5672 229.921 38.0146 229.428 39.2714C228.935 40.5281 228.357 41.5376 227.694 42.2997C227.031 43.0392 226.269 43.4185 225.409 43.4375C224.684 43.4535 224.111 43.149 223.689 42.5241C223.29 41.876 222.979 41.124 222.756 40.2681C222.556 39.4118 222.424 38.5426 222.359 37.6606C222.294 36.7786 222.256 36.0999 222.246 35.6244C222.2 33.5641 222.28 31.5236 222.485 29.5031C222.689 27.4825 222.973 25.4715 223.337 23.4701C223.7 21.4461 224.109 19.4437 224.563 17.4629C224.798 16.4768 225.032 15.4935 225.267 14.5129C225.509 13.5007 225.752 12.4915 225.994 11.4851C224.961 11.5249 223.925 11.5536 222.888 11.5713C221.154 11.6008 219.415 11.5993 217.671 11.567C214.884 11.5153 212.108 11.452 209.343 11.3771C208.888 13.3579 208.515 15.4275 208.222 17.5859C208.173 17.9834 208.125 18.3817 208.079 18.7806ZM227.484 18.1457C227.042 20.0752 226.644 22.0265 226.29 23.9998L226.288 24.0063C225.939 25.9303 225.666 27.8632 225.469 29.8053C225.277 31.7016 225.202 33.619 225.245 35.5582C225.254 35.9562 225.287 36.5746 225.351 37.4409C225.403 38.1548 225.509 38.8565 225.669 39.5475C225.7 39.6663 225.733 39.7796 225.768 39.8876C226.05 39.4706 226.346 38.9121 226.635 38.1753C227.051 37.1172 227.416 35.8462 227.715 34.343L227.719 34.3236L227.723 34.3043C228.052 32.7609 228.317 31.1467 228.516 29.4605L228.518 29.4447L228.52 29.4288C228.744 27.6975 228.914 25.9559 229.028 24.2042C229.144 22.4275 229.218 20.7717 229.249 19.2357L229.25 19.2155L229.251 19.1953C229.305 17.6145 229.329 16.2151 229.323 14.9937L229.323 14.9669L229.324 14.9402C229.341 13.6835 229.341 12.7397 229.327 12.0911C229.318 11.6882 229.299 11.2996 229.271 10.9249C229.267 10.8666 229.262 10.8079 229.257 10.7489L228.911 12.1877C228.435 14.1624 227.96 16.1484 227.484 18.1457ZM228.986 8.36778L228.739 6.34931L232.158 6.379C233.616 6.39166 235.061 6.39335 236.496 6.3841C237.929 6.37484 239.374 6.35414 240.831 6.32199L244.197 6.24765C245.302 6.20117 246.407 6.1332 247.512 6.04372L248.319 5.9783L248.326 5.28139L270.322 3.67545L270.316 5.62175C271.266 5.05723 272.269 4.60596 273.321 4.2708C274.557 3.8607 275.841 3.64614 277.161 3.61699C279.412 3.56729 281.531 3.89142 283.45 4.6811C285.26 5.42579 286.862 6.4737 288.221 7.83101C289.536 9.14402 290.619 10.6856 291.485 12.4246C292.31 14.0618 292.977 15.8026 293.493 17.641C293.997 19.4385 294.39 21.312 294.674 23.2592C294.951 25.1399 295.146 27.0031 295.259 28.8486C295.391 30.6535 295.476 32.407 295.514 34.1085L295.614 38.6254C295.671 41.2058 295.693 43.7649 295.681 46.3027C295.69 48.8168 295.666 51.3538 295.608 53.9136L295.543 56.8322L270.334 56.9511L270.331 57.4872L246.989 59.011L246.96 59.4941L226.889 61.409L227.174 58.3951C226.69 58.5292 226.198 58.6407 225.7 58.7299L225.655 58.738L225.609 58.7447C224.757 58.8704 223.917 58.933 223.095 58.9245C221.202 58.935 219.376 58.6092 217.643 57.9314L217.623 57.9237L217.604 57.9157C215.964 57.2477 214.45 56.3576 213.07 55.2497L213.057 55.2388L213.043 55.2277C211.696 54.1198 210.487 52.8451 209.416 51.413L209.408 51.403L209.401 51.3929C208.358 49.9746 207.461 48.4833 206.713 46.9202L206.701 46.8941L206.689 46.8677C205.974 45.2971 205.406 43.6903 204.989 42.0487L204.984 42.0274L204.979 42.0061C204.871 41.5547 204.776 41.1048 204.695 40.6563L193.849 41.2061L194.331 59.9772L171.077 60.9507L171.117 7.24973L208.558 6.42299L208.478 8.35262L209.424 8.37823C212.18 8.45285 214.948 8.51594 217.727 8.5675C220.458 8.61816 223.175 8.59142 225.879 8.48736L228.986 8.36778ZM190.775 38.358L202.654 37.7559L203.1 27.2129L190.603 27.4888L190.508 23.2097L204.891 22.1445C204.967 20.9359 205.033 19.7348 205.087 18.5412C205.129 17.6291 205.164 16.7213 205.193 15.818C205.229 14.7171 205.267 13.6098 205.309 12.4962C205.346 11.5002 205.385 10.4991 205.427 9.49285L174.115 10.1843L174.079 57.8224L191.257 57.1033L190.775 38.358ZM270.363 51.4701C270.822 48.1727 271.22 44.8849 271.557 41.6067C271.954 37.7124 272.109 33.7892 272.021 29.8363C272.016 29.5977 271.997 29.1669 271.96 28.514C271.926 27.9166 271.869 27.2314 271.787 26.455L271.786 26.4484C271.708 25.6901 271.598 24.9183 271.456 24.1328L271.449 24.0898L271.442 24.0467C271.383 23.6537 271.312 23.292 271.232 22.96C271.089 23.3435 270.962 23.7829 270.858 24.2848C270.696 25.0644 270.574 25.8405 270.491 26.6133C270.426 27.4285 270.381 28.1958 270.355 28.916C270.35 29.6513 270.353 30.2395 270.363 30.6884L270.364 30.7308L270.363 30.7732C270.339 34.7721 270.336 38.7479 270.356 42.7003C270.37 45.599 270.372 48.5224 270.363 51.4701ZM267.355 28.8521C267.383 28.0586 267.432 27.2194 267.504 26.3344C267.597 25.4489 267.736 24.5624 267.921 23.6749C268.105 22.7874 268.359 21.989 268.683 21.2796C269.029 20.5471 269.458 19.9487 269.969 19.4844C270.502 19.0195 271.154 18.7786 271.923 18.7616C272.354 18.7521 272.721 18.9819 273.026 19.4508C273.353 19.8967 273.626 20.4796 273.846 21.1996C274.088 21.9191 274.276 22.7191 274.409 23.5996C274.564 24.457 274.684 25.3038 274.771 26.14C274.856 26.9536 274.918 27.6884 274.955 28.3445C274.992 29.0006 275.014 29.4758 275.021 29.7701C275.111 33.8455 274.951 37.8924 274.541 41.9109C274.233 44.9118 273.874 47.9203 273.464 50.9363C273.328 51.9361 273.187 52.9368 273.04 53.9383L292.609 53.846C292.666 51.3077 292.69 48.7928 292.68 46.3013C292.693 43.7866 292.671 41.2501 292.614 38.6916L292.515 34.1747C292.478 32.5219 292.395 30.8135 292.266 29.0495C292.159 27.285 291.972 25.4996 291.706 23.6934C291.439 21.8644 291.072 20.117 290.604 18.4511C290.137 16.7851 289.537 15.2241 288.802 13.7679C288.067 12.2891 287.167 11.0178 286.102 9.95403C285.036 8.89026 283.772 8.0574 282.309 7.45545C280.846 6.85349 279.152 6.57376 277.228 6.61626C276.186 6.63925 275.193 6.80842 274.249 7.12375C273.326 7.41594 272.452 7.82034 271.625 8.33694C271.171 8.60817 270.731 8.90983 270.306 9.24191C269.956 9.51459 269.616 9.80777 269.286 10.1215C268.577 10.8167 267.913 11.5562 267.296 12.34L267.312 6.90315L251.3 8.07219C251.228 16.07 251.064 24.0245 250.808 31.9357C250.604 38.8528 250.384 45.805 250.147 52.7921C250.113 53.7957 250.079 54.8001 250.044 55.8052L267.348 54.6756C267.372 50.643 267.375 46.6562 267.356 42.7151C267.336 38.7514 267.339 34.7646 267.363 30.7547C267.352 30.2566 267.35 29.6224 267.355 28.8521Z" fill="#1A1275"/>
<path d="M190.775 38.358L202.654 37.7559L203.1 27.2129L190.603 27.4888L190.508 23.2097L204.891 22.1445C204.967 20.9359 205.033 19.7348 205.087 18.5412C205.129 17.6291 205.164 16.7213 205.193 15.818C205.229 14.7171 205.267 13.6098 205.309 12.4962C205.346 11.5002 205.385 10.4991 205.427 9.49285L174.115 10.1843L174.079 57.8224L191.257 57.1033L190.775 38.358Z" fill="#1A1275"/>
<path d="M267.504 26.3344C267.432 27.2194 267.383 28.0586 267.355 28.8521C267.35 29.6224 267.352 30.2566 267.363 30.7547C267.339 34.7646 267.336 38.7514 267.356 42.7151C267.375 46.6562 267.372 50.643 267.348 54.6756L250.044 55.8052C250.079 54.8001 250.113 53.7957 250.147 52.7921C250.384 45.805 250.604 38.8528 250.808 31.9357C251.064 24.0245 251.228 16.07 251.3 8.07219L267.312 6.90315L267.296 12.34C267.913 11.5562 268.577 10.8167 269.286 10.1215C269.616 9.80777 269.956 9.51459 270.306 9.24191C270.731 8.90983 271.171 8.60817 271.625 8.33694C272.452 7.82034 273.326 7.41594 274.249 7.12375C275.193 6.80842 276.186 6.63925 277.228 6.61626C279.152 6.57376 280.846 6.85349 282.309 7.45545C283.772 8.0574 285.036 8.89026 286.102 9.95403C287.167 11.0178 288.067 12.2891 288.802 13.7679C289.537 15.2241 290.137 16.7851 290.604 18.4511C291.072 20.117 291.439 21.8644 291.706 23.6934C291.972 25.4996 292.159 27.285 292.266 29.0495C292.395 30.8135 292.478 32.5219 292.515 34.1747L292.614 38.6916C292.671 41.2501 292.693 43.7866 292.68 46.3013C292.69 48.7928 292.666 51.3077 292.609 53.846L273.04 53.9383C273.187 52.9368 273.328 51.9361 273.464 50.9363C273.874 47.9203 274.233 44.9118 274.541 41.9109C274.951 37.8924 275.111 33.8455 275.021 29.7701C275.014 29.4758 274.992 29.0006 274.955 28.3445C274.918 27.6884 274.856 26.9536 274.771 26.14C274.684 25.3038 274.564 24.457 274.409 23.5996C274.276 22.7191 274.088 21.9191 273.846 21.1996C273.626 20.4796 273.353 19.8967 273.026 19.4508C272.721 18.9819 272.354 18.7521 271.923 18.7616C271.154 18.7786 270.502 19.0195 269.969 19.4844C269.458 19.9487 269.029 20.5471 268.683 21.2796C268.359 21.989 268.105 22.7874 267.921 23.6749C267.736 24.5624 267.597 25.4489 267.504 26.3344Z" fill="#1A1275"/>
<path d="M208.079 18.7806C207.945 19.9551 207.827 21.1358 207.726 22.3228C207.675 22.9215 207.628 23.5218 207.585 24.1237C207.566 24.4017 207.547 24.6796 207.529 24.9574C207.406 26.8799 207.326 28.8015 207.289 30.722C207.269 32.8971 207.282 35.0034 207.327 37.0411C207.357 38.4222 207.547 39.8451 207.897 41.3098C208.269 42.774 208.776 44.2125 209.419 45.6254C210.084 47.0151 210.884 48.3453 211.818 49.6158C212.751 50.8637 213.795 51.9619 214.949 52.9105C216.102 53.8364 217.364 54.5787 218.735 55.1374C220.106 55.6734 221.562 55.9358 223.102 55.9244C223.759 55.9326 224.449 55.8834 225.171 55.7768C225.893 55.6476 226.591 55.4623 227.266 55.2209C227.338 55.1924 227.41 55.1632 227.482 55.1331C228.074 54.8847 228.629 54.583 229.147 54.228C229.749 53.8296 230.271 53.365 230.713 52.8342L230.217 58.0778L244.119 56.7515C244.599 48.7447 245.114 40.7938 245.665 32.8987C246.145 25.9833 246.737 19.0396 247.441 12.0674C247.543 11.0569 247.647 10.0457 247.754 9.03393C246.742 9.1159 245.73 9.18044 244.717 9.22755C244.576 9.23413 244.434 9.24037 244.293 9.24627L240.897 9.32126C239.425 9.35375 237.965 9.37468 236.515 9.38403C236.062 9.38696 235.608 9.3888 235.153 9.38956C234.152 9.39124 233.144 9.38768 232.132 9.37889C232.187 9.83071 232.231 10.2715 232.263 10.7011C232.295 11.1308 232.316 11.5721 232.326 12.0249C232.328 12.1363 232.331 12.2549 232.332 12.3807C232.341 13.0468 232.338 13.9136 232.323 14.981C232.329 16.2494 232.304 17.6884 232.249 19.2979C232.216 20.8843 232.14 22.5849 232.022 24.3996C231.903 26.2144 231.728 28.0191 231.496 29.8138C231.286 31.5853 231.006 33.2904 230.657 34.929C230.331 36.5672 229.921 38.0146 229.428 39.2714C228.935 40.5281 228.357 41.5376 227.694 42.2997C227.031 43.0392 226.269 43.4185 225.409 43.4375C224.684 43.4535 224.111 43.149 223.689 42.5241C223.29 41.876 222.979 41.124 222.756 40.2681C222.556 39.4118 222.424 38.5426 222.359 37.6606C222.294 36.7786 222.256 36.0999 222.246 35.6244C222.2 33.5641 222.28 31.5236 222.485 29.5031C222.689 27.4825 222.973 25.4715 223.337 23.4701C223.7 21.4461 224.109 19.4437 224.563 17.4629C224.798 16.4768 225.032 15.4935 225.267 14.5129C225.509 13.5007 225.752 12.4915 225.994 11.4851C224.961 11.5249 223.925 11.5536 222.888 11.5713C221.154 11.6008 219.415 11.5993 217.671 11.567C214.884 11.5153 212.108 11.452 209.343 11.3771C208.888 13.3579 208.515 15.4275 208.222 17.5859C208.173 17.9834 208.125 18.3817 208.079 18.7806Z" fill="#1A1275"/>
<path d="M205.427 9.49285C205.338 11.6241 205.26 13.7325 205.193 15.8179C205.126 17.9034 205.025 20.0123 204.891 22.1445L190.508 23.2097L190.602 27.4888L203.1 27.2129L202.653 37.7559L190.774 38.358L191.256 57.1033L174.079 57.8224L174.114 10.1843L205.427 9.49285Z" fill="#F2F2F2"/>
<path d="M247.753 9.03393C246.911 17.0261 246.214 24.981 245.664 32.8987C245.114 40.7938 244.598 48.7447 244.118 56.7515L230.216 58.0778L230.712 52.8342C230.271 53.365 229.749 53.8296 229.146 54.228C228.566 54.6259 227.939 54.9568 227.265 55.2209C226.591 55.4623 225.893 55.6476 225.171 55.7768C224.448 55.8834 223.758 55.9326 223.101 55.9244C221.561 55.9358 220.106 55.6734 218.735 55.1374C217.363 54.5787 216.101 53.8364 214.948 52.9105C213.794 51.9619 212.751 50.8637 211.817 49.6158C210.883 48.3453 210.084 47.0151 209.419 45.6254C208.776 44.2125 208.268 42.774 207.896 41.3098C207.547 39.8451 207.357 38.4222 207.326 37.0411C207.281 35.0034 207.269 32.8971 207.289 30.722C207.331 28.5239 207.429 26.3244 207.585 24.1237C207.74 21.9231 207.952 19.7438 208.222 17.5859C208.514 15.4275 208.887 13.3579 209.342 11.3771C212.107 11.452 214.883 11.5153 217.671 11.567C220.458 11.6187 223.232 11.5914 225.994 11.4851C225.516 13.4664 225.039 15.459 224.563 17.4629C224.108 19.4437 223.699 21.4461 223.336 23.4701C222.973 25.4715 222.689 27.4825 222.484 29.5031C222.279 31.5236 222.2 33.5641 222.245 35.6244C222.256 36.0999 222.294 36.7786 222.358 37.6606C222.423 38.5426 222.556 39.4118 222.756 40.2681C222.978 41.124 223.29 41.876 223.689 42.5241C224.11 43.149 224.683 43.4535 225.408 43.4375C226.268 43.4185 227.03 43.0392 227.693 42.2997C228.356 41.5376 228.934 40.5281 229.427 39.2714C229.921 38.0146 230.33 36.5672 230.657 34.929C231.005 33.2904 231.285 31.5853 231.495 29.8138C231.727 28.0191 231.903 26.2144 232.021 24.3996C232.14 22.5849 232.215 20.8843 232.248 19.2979C232.303 17.6884 232.328 16.2494 232.323 14.981C232.34 13.7121 232.341 12.7268 232.325 12.0249C232.315 11.5721 232.294 11.1308 232.262 10.7011C232.23 10.2715 232.186 9.83071 232.131 9.37889C233.604 9.39167 235.065 9.39339 236.514 9.38403C237.964 9.37468 239.425 9.35375 240.896 9.32126C242.028 9.29626 243.16 9.27126 244.292 9.24626C245.447 9.19813 246.6 9.12735 247.753 9.03393Z" fill="#F2F2F2"/>
<path d="M292.614 38.6916C292.67 41.2501 292.692 43.7866 292.68 46.3013C292.69 48.7928 292.666 51.3077 292.609 53.846L273.039 53.9383C273.63 49.9158 274.13 45.9067 274.541 41.9109C274.95 37.8924 275.11 33.8455 275.02 29.7701C275.014 29.4758 274.992 29.0006 274.955 28.3445C274.917 27.6884 274.856 26.9535 274.77 26.14C274.684 25.3038 274.563 24.457 274.408 23.5996C274.275 22.7191 274.088 21.9191 273.845 21.1996C273.626 20.4796 273.352 19.8967 273.025 19.4508C272.72 18.9819 272.353 18.7521 271.923 18.7616C271.153 18.7786 270.501 19.0195 269.968 19.4844C269.457 19.9487 269.029 20.5471 268.683 21.2796C268.358 21.989 268.104 22.7874 267.92 23.6749C267.736 24.5624 267.597 25.4489 267.503 26.3344C267.432 27.2194 267.382 28.0586 267.355 28.8521C267.349 29.6224 267.352 30.2566 267.363 30.7547C267.338 34.7646 267.335 38.7515 267.355 42.7151C267.374 46.6562 267.371 50.643 267.347 54.6756L250.043 55.8052C250.32 47.8029 250.574 39.8464 250.807 31.9357C251.063 24.0245 251.227 16.07 251.3 8.07219L267.312 6.90315L267.296 12.34C267.913 11.5562 268.576 10.8167 269.286 10.1215C270.018 9.42574 270.797 8.83089 271.625 8.33693C272.451 7.82033 273.326 7.41594 274.248 7.12375C275.193 6.80842 276.186 6.63925 277.227 6.61626C279.151 6.57376 280.845 6.85349 282.308 7.45544C283.771 8.0574 285.036 8.89026 286.101 9.95403C287.167 11.0178 288.067 12.2891 288.802 13.7679C289.536 15.2241 290.137 16.7851 290.604 18.4511C291.071 20.117 291.438 21.8644 291.705 23.6934C291.971 25.4996 292.158 27.285 292.265 29.0495C292.395 30.8135 292.478 32.5219 292.514 34.1747C292.551 35.8275 292.584 37.3332 292.614 38.6916Z" fill="#F2F2F2"/>
<path d="M22.2875 25.8082L22.2928 25.8174L22.2983 25.8265C22.4359 26.056 22.5325 26.3808 22.5325 26.8502C22.5325 27.6517 22.3433 28.1668 22.0721 28.5034C21.7156 28.9224 21.28 29.2465 20.7528 29.4783C20.194 29.7118 19.6072 29.8653 18.9894 29.938C18.7601 29.9649 18.5456 29.9871 18.3458 30.0047L18.4873 24.7669C18.6455 24.7081 18.8057 24.6531 18.9679 24.6019C19.2678 24.5072 19.5743 24.46 19.8911 24.46C20.1041 24.46 20.3818 24.5005 20.7338 24.6061L20.7338 24.6062L20.7464 24.6098C21.068 24.7017 21.3523 24.8447 21.6066 25.0391L21.6174 25.0474L21.6285 25.0554C21.8796 25.2368 22.1008 25.4813 22.2875 25.8082ZM22.224 42.2822L22.2155 42.2952L22.2074 42.3085C21.9943 42.6585 21.7291 42.9306 21.4082 43.1376C21.054 43.3448 20.6787 43.4886 20.2783 43.5707C19.8052 43.6455 19.384 43.6805 19.0121 43.6805C18.7779 43.6805 18.5312 43.6646 18.2714 43.6314C18.2496 43.6268 18.2277 43.6221 18.2058 43.6175L18.3022 38.1236C18.554 38.0972 18.8115 38.0838 19.0749 38.0838C19.4363 38.0838 19.851 38.127 20.3228 38.2214L20.3418 38.2252L20.3609 38.2282C20.7427 38.2893 21.0886 38.4248 21.4082 38.6379L21.4222 38.6472L21.4365 38.6561C21.7203 38.8317 21.9768 39.0923 22.1978 39.4712L22.2055 39.4844L22.2136 39.4973C22.3996 39.7949 22.5325 40.2434 22.5325 40.9136C22.5325 41.5867 22.3985 42.0146 22.224 42.2822Z" stroke="#1A1275" stroke-width="2"/>
</svg>
