<svg width="1139" height="1139" viewBox="0 0 1139 1139" fill="none" xmlns="http://www.w3.org/2000/svg">
<path opacity="0.5" d="M1138.5 569.5C1138.5 883.75 883.75 1138.5 569.5 1138.5C255.25 1138.5 0.5 883.75 0.5 569.5C0.5 255.25 255.25 0.5 569.5 0.5C883.75 0.5 1138.5 255.25 1138.5 569.5ZM1062.57 569.5C1062.57 841.813 841.813 1062.57 569.5 1062.57C297.187 1062.57 76.4333 841.813 76.4333 569.5C76.4333 297.187 297.187 76.4333 569.5 76.4333C841.813 76.4333 1062.57 297.187 1062.57 569.5ZM569.5 1063.57C842.365 1063.57 1063.57 842.365 1063.57 569.5C1063.57 296.634 842.365 75.4333 569.5 75.4333C296.634 75.4333 75.4333 296.634 75.4333 569.5C75.4333 842.365 296.634 1063.57 569.5 1063.57ZM986.633 569.5C986.633 799.876 799.876 986.633 569.5 986.633C339.124 986.633 152.367 799.876 152.367 569.5C152.367 339.124 339.124 152.367 569.5 152.367C799.876 152.367 986.633 339.124 986.633 569.5ZM569.5 987.633C800.429 987.633 987.633 800.429 987.633 569.5C987.633 338.571 800.429 151.367 569.5 151.367C338.571 151.367 151.367 338.571 151.367 569.5C151.367 800.429 338.571 987.633 569.5 987.633ZM910.7 569.5C910.7 757.94 757.94 910.7 569.5 910.7C381.06 910.7 228.3 757.94 228.3 569.5C228.3 381.06 381.06 228.3 569.5 228.3C757.94 228.3 910.7 381.06 910.7 569.5ZM569.5 911.7C758.492 911.7 911.7 758.492 911.7 569.5C911.7 380.508 758.492 227.3 569.5 227.3C380.508 227.3 227.3 380.508 227.3 569.5C227.3 758.492 380.508 911.7 569.5 911.7ZM834.767 569.5C834.767 716.003 716.003 834.767 569.5 834.767C422.997 834.767 304.233 716.003 304.233 569.5C304.233 422.997 422.997 304.233 569.5 304.233C716.003 304.233 834.767 422.997 834.767 569.5ZM569.5 835.767C716.555 835.767 835.767 716.555 835.767 569.5C835.767 422.445 716.555 303.233 569.5 303.233C422.445 303.233 303.233 422.445 303.233 569.5C303.233 716.555 422.445 835.767 569.5 835.767ZM749.794 569.5C749.794 669.073 669.073 749.794 569.5 749.794C469.927 749.794 389.206 669.073 389.206 569.5C389.206 469.927 469.927 389.206 569.5 389.206C669.073 389.206 749.794 469.927 749.794 569.5ZM569.5 750.794C669.626 750.794 750.794 669.626 750.794 569.5C750.794 469.374 669.626 388.206 569.5 388.206C469.374 388.206 388.206 469.374 388.206 569.5C388.206 669.626 469.374 750.794 569.5 750.794ZM659.397 569.5C659.397 619.149 619.149 659.397 569.5 659.397C519.851 659.397 479.603 619.149 479.603 569.5C479.603 519.851 519.851 479.603 569.5 479.603C619.149 479.603 659.397 519.851 659.397 569.5ZM569.5 660.397C619.701 660.397 660.397 619.701 660.397 569.5C660.397 519.299 619.701 478.603 569.5 478.603C519.299 478.603 478.603 519.299 478.603 569.5C478.603 619.701 519.299 660.397 569.5 660.397Z" stroke="#F8FAFC"/>
</svg>
