<svg width="1081" height="1232" viewBox="0 0 1081 1232" fill="none" xmlns="http://www.w3.org/2000/svg">
<g opacity="0.4" clip-path="url(#clip0_513_13379)">
<path d="M590.205 469.799C592.125 469.792 594.031 470.104 595.835 470.72C597.062 471.076 598.194 471.674 599.153 472.474C600.113 473.274 600.878 474.257 601.397 475.357C602.008 477.383 602.008 479.527 601.397 481.552C598.324 495.636 591.927 508.898 582.676 520.369C573.858 531.296 565.514 541.62 548.217 535.14C543.909 533.71 540.042 531.31 536.958 528.151C533.959 524.654 532.374 520.279 532.481 515.795C532.522 511.237 533.806 506.765 536.211 502.803C540.959 495.052 549.031 489.398 557.069 484.442C562.225 481.266 567.515 478.089 572.874 475.389C578.065 472.205 584.022 470.283 590.205 469.799V469.799ZM558.189 536.823C568.974 536.823 575.52 528.691 582.404 520.178C591.638 508.749 598.024 495.529 601.092 481.488C601.685 479.525 601.685 477.447 601.092 475.484C600.575 474.431 599.828 473.491 598.899 472.725C597.97 471.959 596.88 471.384 595.699 471.037C588.272 468.433 580.064 471.895 573.044 475.643C567.719 478.502 562.394 481.552 557.273 484.728C549.269 489.652 541.231 495.243 536.517 502.962C533.947 506.708 532.639 511.091 532.759 515.543C532.88 519.994 534.425 524.309 537.195 527.929C540.252 531.059 544.084 533.437 548.353 534.854C551.466 536.096 554.805 536.764 558.189 536.823V536.823Z" stroke="white" stroke-width="2"/>
<path d="M602.596 427.012C608.991 426.93 615.216 428.941 620.198 432.698C623.164 434.813 625.423 437.679 626.71 440.957C628.221 445.704 629.243 450.575 629.762 455.505V456.426C633.696 484.666 637.088 507.251 640.378 527.04V527.231C641.531 534.251 642.854 542.224 639.326 549.467C638.541 551.034 637.646 552.552 636.647 554.009C635.935 555.058 635.223 556.169 634.612 557.186C631.766 563.022 630.519 569.431 630.983 575.832C631.145 578.553 630.766 581.278 629.864 583.869C629.345 585.225 628.522 586.462 627.452 587.498C626.382 588.533 625.088 589.342 623.657 589.872C620.195 591.093 616.537 591.759 612.838 591.842H612.024C601.436 592.828 590.908 594.323 580.483 596.321C568.159 598.677 555.703 600.385 543.175 601.435L539.411 601.689C536.528 601.911 533.509 602.134 530.593 602.229C526.358 602.519 522.102 602.262 517.942 601.467C513.491 600.579 509.44 598.427 506.343 595.304C503.24 591.742 501.382 587.373 501.018 582.789C500.743 580.033 500.618 577.265 500.645 574.498C500.645 572.878 500.645 571.321 500.645 569.574C500.201 560.665 497.897 551.923 493.862 543.844C493.251 542.606 492.573 541.398 491.929 540.191C489.271 536.147 487.603 531.602 487.045 526.882C486.943 523.187 487.647 519.512 489.114 516.082C495.897 498.706 510.209 485.682 526.658 471.61C538.122 461.826 550.399 452.138 564.576 441.909C569.989 437.76 575.738 434.011 581.771 430.696C583.984 429.579 586.361 428.776 588.826 428.314C593.357 427.446 597.971 427.009 602.596 427.012ZM527.167 602.229H530.796C533.747 602.229 536.731 601.911 539.648 601.689L543.379 601.435C555.907 600.386 568.362 598.678 580.686 596.321C591.134 594.323 601.684 592.828 612.296 591.842H613.076C616.74 591.773 620.365 591.118 623.793 589.904C630.169 587.331 630.983 581.772 630.915 576.15C630.446 569.704 631.705 563.25 634.578 557.376V557.376C635.223 556.265 635.935 555.153 636.613 554.2C637.605 552.75 638.5 551.243 639.292 549.689C642.684 542.415 641.531 534.823 640.31 527.453C636.918 507.505 633.527 485.047 629.694 456.839V455.886C629.089 450.82 627.965 445.821 626.337 440.957C625.061 437.734 622.824 434.923 619.893 432.856C617.013 430.682 613.689 429.082 610.125 428.155C603.148 426.796 595.926 427.025 589.063 428.822C586.692 429.291 584.406 430.082 582.28 431.173C576.251 434.466 570.512 438.205 565.119 442.354C551.078 452.551 538.699 462.271 527.235 472.023C510.82 486.032 496.711 499.024 489.928 516.495C488.457 519.88 487.752 523.514 487.859 527.168C488.438 531.839 490.093 536.336 492.709 540.35C493.353 541.525 494.031 542.764 494.642 544.003C498.676 552.116 500.981 560.888 501.425 569.828C501.425 571.48 501.425 573.164 501.425 574.784C501.398 577.541 501.522 580.297 501.798 583.043C502.16 587.553 503.982 591.852 507.021 595.368C510.075 598.442 514.066 600.561 518.451 601.435C521.314 602.011 524.239 602.277 527.167 602.229V602.229Z" stroke="white" stroke-width="2"/>
<path d="M606.422 379.109C613.743 378.95 620.985 380.558 627.45 383.778C631.918 386.143 635.93 389.192 639.321 392.8C642.798 396.368 645.444 400.577 647.087 405.156C649.309 412.138 651.154 419.22 652.616 426.376L653.463 430.092C662.069 468.369 672.835 506.191 685.717 543.399C689.855 555.152 694.501 568.462 689.109 581.136C687.93 583.744 686.535 586.261 684.937 588.665C683.852 590.38 682.733 592.159 681.817 593.969C676.73 604.007 677.611 615.379 679.172 625.163C680.732 634.947 680.596 645.937 667.844 650.162C661.897 651.809 655.664 652.348 649.495 651.75H647.291C620.972 650.925 594.891 656.229 567.351 661.852C556.024 664.171 544.289 666.553 532.486 668.491L526.72 669.444C521.701 670.301 516.546 671.191 511.357 671.89C504.162 673.111 496.818 673.357 489.549 672.62C481.652 671.728 474.341 668.265 468.894 662.836C463.443 656.547 460.451 648.701 460.415 640.601C460.178 636.281 460.415 631.897 460.619 627.704C460.788 624.528 460.958 621.351 460.924 618.174C460.682 603.248 456.249 588.644 448.07 575.831C446.612 573.608 445.051 571.448 443.457 569.288C438.641 562.681 433.69 555.883 432.469 547.497C431.719 541.045 432.59 534.518 435.012 528.438C445.187 499.468 468.487 476.565 489.617 457.347C512.238 436.763 536.726 417.894 555.515 403.759C564.981 396.243 575.113 389.495 585.802 383.588C589.821 381.482 594.228 380.102 598.791 379.522C601.324 379.243 603.872 379.106 606.422 379.109V379.109ZM655.227 649.114C659.236 649.196 663.229 648.626 667.03 647.43C677.679 643.873 677.815 634.724 676.356 625.512C674.729 615.284 673.813 603.277 679.273 592.667C680.257 590.761 681.41 588.951 682.495 587.172C684.03 584.898 685.357 582.507 686.463 580.025C691.415 568.303 686.904 555.502 683.072 544.225C670.151 506.912 659.351 468.984 650.716 430.6L649.868 426.884C648.433 419.823 646.611 412.836 644.408 405.951C642.901 401.758 640.475 397.906 637.286 394.642C634.117 391.267 630.369 388.411 626.195 386.193C617.946 382.294 608.592 380.938 599.47 382.317C595.295 382.851 591.267 384.123 587.599 386.065C576.964 391.887 566.887 398.562 557.482 406.014C538.761 420.118 514.341 438.923 491.787 459.443C470.963 478.503 447.697 500.992 437.963 529.327C435.723 534.963 434.899 541.006 435.555 546.989C436.674 554.676 441.219 560.933 446.035 567.541C447.663 569.732 449.257 571.956 450.749 574.211C459.211 587.466 463.797 602.574 464.044 618.016C464.044 621.192 464.044 624.655 463.739 627.863C463.535 631.993 463.298 636.281 463.535 640.569C463.601 647.971 466.312 655.14 471.234 660.931C476.21 665.855 482.87 668.99 490.058 669.793C497.034 670.496 504.082 670.25 510.983 669.063C516.071 668.364 521.158 667.506 526.246 666.648L532.011 665.664C543.78 663.758 555.447 661.375 566.775 659.056C594.518 653.402 620.735 648.066 647.426 648.892H649.665C651.496 648.955 653.463 649.019 655.227 649.019V649.114Z" stroke="white" stroke-width="2"/>
<path d="M613.377 333.175C624.091 333.037 634.56 336.183 643.189 342.133C648.221 345.726 652.646 350.01 656.314 354.839C660.01 359.547 662.873 364.781 664.793 370.341C667.642 379.076 669.982 388.034 672.221 396.706C672.933 399.311 673.611 401.915 674.289 404.488C688.361 457.699 706.391 509.921 728.249 560.774C734.829 575.957 743.003 594.826 736.219 611.979C734.69 615.524 732.852 618.945 730.725 622.208C729.233 624.622 727.707 627.1 726.452 629.673C719.262 644.412 721.466 660.834 724.552 674.938C727.469 688.438 728.148 702.923 710.986 708.133C702.802 710.047 694.293 710.415 685.956 709.213L682.565 708.959C640.408 705.782 599.437 715.312 556.025 725.191C544.664 727.796 532.895 730.496 521.194 732.942L514.852 734.244C507.255 735.864 499.352 737.42 491.653 738.882C481.745 741.04 471.547 741.79 461.4 741.105C450.694 740.266 440.701 735.739 433.352 728.399C424.839 719.441 422.737 707.053 422.431 698.222C422.344 692.412 422.582 686.602 423.144 680.815C423.517 676.113 423.89 671.285 423.89 666.393C423.863 644.927 417.105 623.94 404.456 606.039C402.116 602.863 399.572 599.686 397.096 596.51C389.906 587.615 382.479 578.467 380.41 567.19C379.14 558.446 380.141 549.543 383.326 541.238C395.909 502.897 424.873 472.149 454.278 444.608C484.114 417.372 515.402 391.567 548.021 367.291C561.388 356.46 575.783 346.795 591.026 338.416C596.521 335.409 602.638 333.535 608.968 332.921C610.392 333.239 611.884 333.175 613.377 333.175ZM697.555 709.594C702.033 709.676 706.497 709.097 710.783 707.879C727.741 702.765 726.96 688.407 724.078 675.065C720.991 660.898 718.787 644.444 726.011 629.609C727.266 627.036 728.826 624.527 730.318 622.113C732.422 618.859 734.237 615.448 735.745 611.916C742.528 594.89 734.693 576.974 727.774 561.091C705.926 510.182 687.895 457.907 673.815 404.647L671.78 396.833C669.507 388.193 667.167 379.235 664.318 370.5C662.408 364.978 659.568 359.777 655.907 355.093C652.267 350.263 647.864 345.978 642.849 342.387C633.058 335.702 620.998 332.596 608.934 333.652C602.653 334.275 596.585 336.137 591.128 339.115C575.956 347.469 561.629 357.102 548.326 367.895C515.708 392.171 484.42 417.977 454.583 445.212C425.212 472.72 396.282 503.469 383.7 541.714C380.541 549.982 379.552 558.839 380.817 567.54C382.852 578.721 390.279 587.838 397.436 596.7C399.911 599.877 402.489 603.053 404.795 606.23C417.459 624.128 424.24 645.112 424.297 666.584C424.297 671.444 423.924 676.304 423.551 681.005C423.11 686.723 422.669 692.6 422.838 698.413C423.11 707.18 425.246 719.505 433.691 728.367C441.011 735.599 450.93 740.035 461.536 740.819C471.637 741.501 481.791 740.752 491.653 738.596C499.352 737.23 507.221 735.419 514.852 733.99L521.194 732.656C532.895 730.21 544.63 727.542 556.025 724.937C599.471 714.963 640.509 705.592 682.666 708.673L686.058 708.927C689.89 709.276 693.791 709.594 697.555 709.594Z" stroke="white" stroke-width="2"/>
<path d="M624.769 285.654C637.792 286.17 650.162 291.143 659.532 299.631C665.261 304.55 670.227 310.195 674.286 316.403C678.304 322.343 681.474 328.75 683.714 335.462C687.106 345.436 689.819 355.665 692.6 365.512C693.821 369.927 695.11 374.501 696.398 378.948C716.026 447.12 741.361 513.738 772.166 578.181C781.459 597.526 793.058 621.604 784.613 643.681C782.749 648.204 780.48 652.571 777.83 656.736C775.965 659.913 774.032 663.089 772.438 666.266C763.348 685.325 766.808 706.608 771.386 724.841C773.252 732.306 775.117 741.931 773.15 750.253C771.013 759.02 765.01 764.706 754.767 767.66C744.525 770.615 733.265 769.471 722.581 768.359L717.766 767.883C689.041 765.492 660.102 766.796 631.755 771.758C603.164 776.332 574.099 783.511 545.745 790.468C534.078 793.327 522.004 796.313 510.1 799.076L504.097 800.474C493.583 802.92 482.696 805.429 472.046 807.589C459.322 810.677 446.172 811.941 433.043 811.338C419.235 810.54 406.265 804.864 396.753 795.455C385.765 783.924 383.187 767.883 383.187 756.447C383.178 749.021 383.585 741.598 384.408 734.212C384.985 727.859 385.561 721.506 385.629 715.152C385.572 687.48 376.392 660.5 359.344 637.899C356.19 633.738 352.561 629.672 349.17 625.701C339.504 614.425 329.532 602.767 326.582 588.314C324.615 578.784 325.666 568.174 329.973 554.801C345.676 505.247 383.119 464.969 417.679 432.06C456.648 394.958 499.077 361.763 539.335 330.919C556.835 317.483 574.913 303.601 595.228 293.214C602.535 289.648 610.437 287.274 618.596 286.194C620.633 285.85 622.698 285.669 624.769 285.654V285.654ZM739.37 769.249C744.462 769.314 749.537 768.671 754.428 767.343C776.609 760.99 775.151 742.343 770.81 724.968C766.231 706.703 762.738 685.42 771.895 666.202C773.489 663.025 775.287 659.849 777.288 656.672C779.944 652.533 782.213 648.186 784.071 643.681C792.448 621.731 780.883 597.684 771.624 578.403C740.855 513.982 715.565 447.385 695.991 379.234C694.669 374.756 693.414 370.213 692.159 365.798C689.378 355.919 686.529 345.722 683.307 335.748C681.074 329.034 677.903 322.625 673.879 316.689C669.873 310.483 664.926 304.854 659.193 299.98C646.61 289.37 631.823 284.479 618.494 286.543C610.379 287.604 602.519 289.968 595.262 293.532C574.913 303.887 556.903 317.769 539.403 331.174C499.213 362.018 456.75 395.244 417.781 432.314C383.255 465.191 345.846 505.374 330.177 554.928C325.937 568.238 324.886 578.848 326.785 588.282C329.702 602.672 339.673 614.298 349.305 625.542C352.697 629.481 356.089 633.579 359.48 637.74C376.525 660.497 385.624 687.64 385.527 715.438C385.527 721.791 384.883 728.144 384.306 734.497C383.485 741.884 383.077 749.306 383.085 756.733C383.289 768.105 385.833 784.083 396.652 795.519C406.226 804.828 419.226 810.371 433.009 811.02C446.104 811.62 459.22 810.356 471.91 807.272C482.56 805.112 493.413 802.602 503.927 800.156L509.964 798.759C521.868 795.995 533.942 793.009 545.575 790.15C573.827 783.225 603.029 776.015 631.654 771.472C660.02 766.485 688.983 765.171 717.732 767.565L722.548 768.042C728.126 768.74 733.743 769.143 739.37 769.249V769.249Z" stroke="white" stroke-width="2"/>
<path d="M633.852 238.354C648.198 238.354 663.223 244.93 675.874 256.874C682.302 263.085 687.801 270.084 692.221 277.68C696.581 284.892 700.084 292.529 702.667 300.456C706.059 311.192 709.45 322.119 712.401 332.665C714.368 339.431 716.437 346.452 718.506 353.281C743.614 436.35 776.152 517.288 815.776 595.238C827.816 618.776 842.908 648.063 832.734 675.064C830.461 680.574 827.681 685.888 824.424 690.946C822.152 694.726 819.846 698.602 817.947 702.604C806.89 726.301 812.011 753.429 817.743 774.457C820.219 783.606 822.763 795.422 820.456 805.587C818.014 816.324 810.655 823.249 798.038 826.775C785.421 830.301 771.72 828.681 758.628 827.124L752.557 826.425C719.828 822.772 684.217 824.234 643.79 830.872C607.669 836.813 570.905 846.279 535.259 855.459C523.219 858.635 510.772 861.812 498.495 864.798L493.17 866.1C479.604 869.467 465.664 872.93 451.962 875.916C436.802 879.092 420.658 882.269 404.141 881.125C387.253 880.371 371.326 873.544 359.678 862.066C346.111 847.962 343.229 828.268 343.127 814.227C343.195 805.259 343.761 796.299 344.823 787.386C345.603 779.699 346.417 771.725 346.552 763.784C346.852 729.807 335.551 696.629 314.299 669.092C310.33 664.009 305.887 658.99 301.58 654.13C289.472 640.439 276.924 626.304 273.057 608.642C270.547 597.08 271.734 584.024 276.822 567.57C286.097 538.831 300.388 511.729 319.115 487.363C337.778 462.922 358.56 439.963 381.248 418.718C427.984 373.738 478.688 333.936 530.85 293.721C552.387 277.14 574.635 259.987 599.631 247.217C608.58 242.688 618.36 239.778 628.46 238.64C630.248 238.432 632.05 238.337 633.852 238.354V238.354ZM780.809 828.649C786.596 828.731 792.366 828.025 797.936 826.552C810.451 823.09 817.709 816.229 820.117 805.619C822.423 795.518 819.88 783.764 817.404 774.648C813.94 762.853 811.837 750.745 811.129 738.531C810.321 726.235 812.549 713.93 817.641 702.572V702.572C819.541 698.538 821.881 694.663 824.119 690.915C827.371 685.854 830.151 680.54 832.429 675.032C842.603 648.158 827.511 618.934 815.471 595.619C775.83 517.647 743.269 436.688 718.133 353.599C716.064 346.738 714.029 339.749 712.028 332.983C708.942 322.405 705.72 311.478 702.294 300.773C699.721 292.874 696.241 285.258 691.916 278.061C687.487 270.498 682.001 263.522 675.603 257.318C661.426 243.945 644.264 237.338 628.46 239.212C618.411 240.343 608.678 243.23 599.767 247.725C574.805 260.431 552.556 277.648 531.054 294.23C478.891 334.444 428.187 374.246 381.486 419.194C358.794 440.405 338.023 463.344 319.386 487.775C300.675 512.107 286.406 539.179 277.161 567.888C272.073 584.31 270.886 597.302 273.396 608.801C277.229 626.368 289.744 640.567 301.852 654.162C306.125 659.022 310.568 664.041 314.57 669.155C335.941 696.801 347.292 730.132 346.959 764.261C346.959 772.17 346.01 780.143 345.23 787.862C344.168 796.765 343.602 805.714 343.534 814.672C343.534 828.649 346.62 848.28 360.017 862.32C370.192 873.152 386.03 879.823 404.107 881.157C420.556 882.364 436.7 879.251 451.827 875.947C465.393 872.961 479.502 869.594 493 866.164L498.359 864.83C510.637 861.653 523.084 858.476 535.124 855.491C570.667 846.342 607.398 836.876 643.654 830.936C684.149 824.265 719.761 822.804 752.523 826.457L758.594 827.156C765.959 828.082 773.378 828.581 780.809 828.649V828.649Z" stroke="white" stroke-width="2"/>
<path d="M643.048 191.026C651.718 191.126 660.248 193.093 667.976 196.776C677.137 201.112 685.351 207.016 692.192 214.183C699.338 221.66 705.394 229.992 710.201 238.96C714.87 247.418 718.685 256.266 721.597 265.389C724.989 276.125 728.38 287.085 731.5 297.694C734.451 307.478 737.503 317.643 740.624 327.553C771.291 425.609 811.092 520.953 859.566 612.488C874.319 640.219 892.702 674.716 881.001 706.609C878.36 713.141 875.114 719.444 871.301 725.445C868.655 729.861 865.908 734.467 863.704 739.2C850.68 767.312 857.192 799.554 864.348 824.363C867.435 835.226 870.656 849.203 868.011 861.274C865.23 873.98 856.581 882.175 841.523 886.241C826.464 890.307 810.422 888.211 794.923 886.241L787.597 885.32C747.983 880.492 704.944 882.144 656.106 890.371C612.49 897.709 568.196 909.43 525.395 920.866C512.947 924.201 500.06 927.632 487.341 930.903L483.373 931.92C466.619 936.24 449.457 940.719 432.33 944.626C414.388 948.692 395.26 952.599 375.725 951.328C354.052 949.931 335.331 942.085 323.054 929.093C307.079 912.416 303.688 889.069 303.654 872.455C303.654 861.877 304.773 851.204 305.858 840.881C306.842 831.7 307.859 822.171 308.063 812.705C308.578 772.339 294.975 732.924 269.331 700.478C264.515 694.443 259.156 688.502 253.933 682.753C239.35 666.648 224.257 650.003 219.509 629.165C215.439 611.281 219.95 592.825 223.681 580.5C234.348 546.793 250.872 514.962 272.587 486.285C294.214 457.514 318.378 430.493 344.827 405.506C399.092 352.743 459.87 305 522.342 256.685C547.915 236.927 574.335 216.502 604.011 201.35C614.598 195.855 626.261 192.419 638.3 191.249C639.878 191.096 641.462 191.022 643.048 191.026V191.026ZM822.157 888.116C828.675 888.204 835.173 887.423 841.455 885.797C856.344 881.762 864.925 873.662 867.672 861.083C870.283 849.076 867.095 835.131 864.009 824.331C859.703 810.37 857.031 796.013 856.039 781.511C854.911 766.982 857.42 752.407 863.365 738.946V738.946C865.603 734.213 868.35 729.607 870.996 725.159C874.809 719.18 878.055 712.898 880.695 706.386C892.329 674.621 873.913 640.156 859.261 612.488C810.771 520.978 770.959 425.654 740.284 327.617C737.164 317.706 734.112 307.573 731.161 297.758C727.973 287.18 724.683 276.221 721.292 265.452C718.373 256.352 714.558 247.526 709.896 239.087C705.096 230.15 699.063 221.841 691.955 214.374C685.115 207.27 676.941 201.402 667.84 197.062C658.744 192.656 648.503 190.751 638.3 191.566C626.303 192.711 614.681 196.137 604.147 201.636C574.505 216.788 548.084 237.181 522.546 256.939C460.039 305.254 399.466 352.966 345.031 405.728C318.609 430.676 294.467 457.654 272.858 486.38C251.178 515.033 234.678 546.831 224.02 580.5C216.219 606.167 217.881 620.461 219.848 629.006C224.562 649.781 239.689 666.489 254.171 682.372C259.394 688.121 264.786 694.061 269.602 700.097C295.317 732.622 308.945 772.142 308.402 812.609C308.198 822.139 307.181 831.669 306.197 840.785C305.112 851.109 303.993 861.75 303.993 872.328C303.993 888.91 307.385 912.162 323.291 928.775C335.365 941.481 354.459 949.423 375.758 950.788C378.268 950.788 380.812 951.043 383.322 951.043C399.873 950.558 416.303 948.223 432.262 944.086C449.22 940.211 466.551 935.732 483.305 931.38L487.273 930.363C499.958 927.187 512.846 923.661 525.327 920.357C568.128 908.953 612.388 897.169 656.038 889.831C704.944 881.635 747.983 879.952 787.665 884.78L794.99 885.701C803.976 887.089 813.053 887.896 822.157 888.116Z" stroke="white" stroke-width="2"/>
<path d="M651.968 142.364C671.979 142.364 693.244 152.719 709.625 170.603C717.512 179.457 724.168 189.213 729.432 199.637C734.455 209.396 738.629 219.52 741.913 229.909C745.033 239.883 748.108 249.847 751.138 259.8C755.309 273.491 759.651 287.627 764.094 301.413C800.243 414.307 847.215 523.909 904.437 628.881C922.039 660.996 943.949 700.988 930.45 738.312C927.419 745.909 923.661 753.235 919.224 760.199C916.055 765.352 913.169 770.653 910.576 776.081C895.822 808.26 903.792 845.171 912.136 873.728C920.479 902.285 925.091 936.115 885.308 946.788C867.638 951.489 848.984 948.916 831.043 946.407L822.463 945.263C719.054 931.986 615.814 960.13 515.932 987.352C502.773 990.942 489.648 994.5 476.455 998.026L474.996 998.407C454.647 1003.81 433.585 1009.4 412.93 1014.29C392.276 1019.18 369.857 1023.82 347.1 1022.55C322.036 1021.06 299.618 1011.68 285.272 996.787C266.584 977.219 262.684 949.901 262.752 930.429C263.002 918.26 263.908 906.11 265.465 894.026C266.652 883.353 267.873 872.33 268.11 861.403C268.844 815.016 253.069 769.719 223.274 732.658C217.61 725.702 211.302 718.84 205.197 712.233C188.035 693.587 170.264 674.305 164.498 649.973C159.614 629.103 164.803 607.535 169.144 593.113C194.242 509.38 256.138 441.402 307.283 391.563C369.552 330.859 437.214 277.43 512.846 218.855C542.488 195.888 573.114 172.16 607.606 154.53C619.979 147.967 633.703 143.949 647.864 142.745C649.255 142.364 650.612 142.364 651.968 142.364ZM863.467 946.312C870.589 946.404 877.69 945.559 884.562 943.802C921.564 933.955 917.834 903.174 909.287 874.331C900.74 845.489 892.736 807.624 907.862 774.811C910.509 769.327 913.452 763.973 916.68 758.769C921.008 751.954 924.674 744.788 927.635 737.36C940.76 701.179 919.156 661.822 901.825 630.183C844.451 525.069 797.353 415.306 761.109 302.239C756.666 288.421 752.325 274.285 748.153 260.594C745.101 250.662 742.026 240.709 738.928 230.735C735.692 220.497 731.575 210.522 726.617 200.907C721.497 190.639 714.989 181.031 707.251 172.319C690.293 153.958 668.383 143.73 648.17 145.255C634.446 146.412 621.146 150.312 609.167 156.69C574.912 174.193 544.388 197.985 514.847 220.697C439.317 279.24 371.723 332.606 309.555 393.214C258.682 442.8 197.057 510.397 172.129 593.526C167.89 607.662 162.836 628.754 167.55 648.988C173.079 672.654 190.579 691.649 207.503 710.01C213.642 716.68 219.984 723.542 225.682 730.562C255.891 768.147 271.891 814.078 271.163 861.117C270.926 872.172 269.67 883.353 268.483 893.994C267.195 905.811 265.838 918.009 265.804 930.111C265.804 949.171 269.501 975.663 287.544 994.531C301.11 1008.86 323.02 1017.91 347.303 1019.34C369.62 1020.64 391.597 1016.16 412.184 1011.14C432.771 1006.13 453.833 1000.69 474.148 995.262L475.641 994.881C488.8 991.387 501.925 987.797 515.085 984.208C615.272 956.921 718.816 928.682 822.87 942.055C825.752 942.405 828.601 942.817 831.484 943.199C842.05 944.969 852.739 946.02 863.467 946.343V946.312Z" stroke="white" stroke-width="2"/>
<path d="M661.336 96.3042C673.255 96.4338 684.937 99.4427 695.252 105.04C706.677 111.107 716.77 119.148 724.996 128.737C733.463 138.761 740.55 149.742 746.091 161.423C751.49 172.331 756.024 183.595 759.657 195.126C762.201 203.226 764.745 211.485 767.221 219.49C772.952 238.041 778.854 257.227 784.993 275.969C826.774 403.895 881.101 527.927 947.279 646.479C958.675 666.841 969.46 686.757 975.972 706.833C983.671 730.53 984.213 750.923 977.701 769.157C974.318 777.664 970.129 785.87 965.187 793.679C961.566 799.503 958.283 805.504 955.351 811.659V811.659C938.393 848.602 947.754 890.818 957.691 923.472C963.558 942.722 968.918 967.054 958.471 984.557C952.808 994.087 942.768 1000.76 928.727 1004.44C909.022 1009.59 888.029 1006.57 867.679 1003.65L857.843 1002.28C828.429 998.398 798.683 997.175 769.018 998.629C739.417 1000.03 709.953 1003.34 680.837 1008.54C622.299 1018.64 563.082 1035.1 505.799 1050.98C492.232 1054.73 478.666 1058.57 464.862 1062.29C441.461 1068.64 417.38 1075.22 392.893 1081.12C371.899 1086.17 349.651 1091.07 326.893 1091.07C324.18 1091.07 321.433 1091.07 318.686 1090.84C305.869 1090.15 293.264 1087.48 281.378 1082.93C269.329 1078.36 258.528 1071.32 249.769 1062.32C228.843 1040.46 224.604 1009.84 224.739 987.988C224.739 974.233 226.401 960.384 227.927 946.979C229.352 934.781 230.776 922.17 231.081 909.654C232.002 856.67 213.842 804.939 179.53 762.804C173.018 754.894 165.76 747.111 158.739 739.583C139.204 718.65 119.024 696.986 112.512 669.699C106.95 646.447 112.716 622.051 117.532 605.915C129.707 564.842 150.057 524.85 179.665 483.682C203.406 450.455 232.913 417.134 272.052 378.856C342.02 310.371 419.144 249.381 505.425 182.42C539.036 156.341 573.799 129.372 612.904 109.36C626.714 101.868 642.137 97.3635 658.046 96.1771C658.996 96.336 660.251 96.3042 661.336 96.3042ZM904.749 1007.11C912.762 1007.2 920.751 1006.26 928.49 1004.31C942.463 1000.66 952.401 994.023 958.031 984.589C968.443 967.181 963.084 942.944 957.25 923.758C951.272 905.462 947.451 886.608 945.855 867.534C944.11 848.523 947.202 829.397 954.876 811.722C957.839 805.566 961.134 799.555 964.746 793.711C969.689 785.929 973.867 777.743 977.227 769.252C983.738 751.05 983.196 730.752 975.531 707.119C969.019 687.011 958.234 667.095 946.838 646.765C880.66 528.191 826.333 404.138 784.552 276.191C778.413 257.45 772.478 238.263 766.746 219.681C764.27 211.708 761.726 203.449 759.183 195.348C755.61 183.835 751.144 172.581 745.82 161.677C740.26 149.976 733.137 138.982 724.623 128.959C716.432 119.383 706.373 111.352 694.98 105.294C683.741 99.1733 670.865 96.1971 657.876 96.7172C641.977 97.875 626.56 102.37 612.769 109.868C573.698 129.817 538.934 156.785 505.358 182.928C419.076 249.889 341.952 310.879 272.018 379.365C214.938 435.208 145.75 511.572 117.6 606.137C107.425 639.967 109.901 658.677 112.58 669.668C119.058 696.827 139.238 718.459 158.739 739.361C165.76 746.889 173.018 754.672 179.53 762.613C213.886 804.815 232.069 856.623 231.149 909.686C230.844 922.202 229.42 934.813 227.995 947.01C226.469 960.384 224.909 974.233 224.807 987.988C224.807 1009.78 228.911 1040.34 249.735 1062.1C258.46 1071.07 269.228 1078.1 281.243 1082.65C293.132 1087.18 305.736 1089.84 318.55 1090.53C344.122 1091.89 369.186 1086.49 392.656 1080.81C417.041 1074.93 441.223 1068.32 464.659 1061.97C478.225 1058.25 492.164 1054.41 505.561 1050.69C562.845 1034.81 622.096 1018.36 680.668 1008.22C709.784 1003.03 739.247 999.715 768.849 998.311C798.525 996.873 828.28 998.096 857.708 1001.96L867.577 1003.36C879.85 1005.48 892.276 1006.73 904.749 1007.11V1007.11Z" stroke="white" stroke-width="2"/>
<path d="M670.425 48.9421C683.897 49.1255 697.076 52.6552 708.614 59.1706C721.172 66.1103 732.2 75.2313 741.106 86.044C750.333 97.3648 758.012 109.722 763.965 122.828C769.617 134.975 774.421 147.453 778.345 160.184C779.905 165.235 781.499 170.286 783.059 175.368C790.691 200.018 798.593 225.525 806.8 250.398C854.128 393.278 915.72 531.666 990.759 663.728C1003.68 686.44 1015.89 708.644 1023.35 731.197C1032.14 757.658 1032.88 780.402 1025.62 800.795C1021.9 810.295 1017.25 819.45 1011.72 828.145C1007.7 834.668 1004.05 841.379 1000.76 848.252V848.252C982.009 889.547 992.625 936.846 1004.16 973.376C1010.94 994.913 1017.01 1022.17 1005.34 1041.73C999.035 1052.34 987.842 1059.81 972.071 1063.97C950.06 1069.66 926.59 1066.19 903.867 1062.83C900.238 1062.29 896.474 1061.72 892.777 1061.21C859.602 1056.69 826.035 1055.22 792.556 1056.82C759.216 1058.39 726.033 1062.14 693.251 1068.04C627.251 1079.57 560.539 1098.37 496.065 1116.51C482.159 1120.45 467.779 1124.48 453.602 1128.39C425.011 1136.33 399.337 1143.42 373.12 1149.8C346.904 1156.19 318.855 1162.51 290.129 1161.05C275.733 1160.34 261.564 1157.39 248.209 1152.31C234.713 1147.25 222.618 1139.38 212.835 1129.31C189.467 1104.92 184.787 1070.61 185.024 1046.15C185.024 1030.81 186.957 1015.37 188.687 1000.41C190.315 986.749 192.079 972.582 192.316 958.541C193.427 899.248 172.988 841.362 134.354 794.378C126.994 785.516 118.821 776.812 110.884 768.394C88.873 745.047 66.1156 720.746 58.7219 690.442C52.4815 664.776 58.3488 638.824 64.1823 619.066C77.7486 573.292 100.133 528.725 132.93 482.824C159.486 445.627 192.078 408.462 235.423 365.896C313.191 289.469 396.251 223.683 496.573 145.636C534.22 116.38 573.155 86.1393 616.94 63.7766C635.085 54.5011 651.636 49.7045 667.509 49.0692C668.56 48.9422 669.51 48.9421 670.425 48.9421ZM946.024 1066.73C954.775 1066.78 963.492 1065.71 971.936 1063.56C987.639 1059.49 998.763 1052.09 1005.04 1041.54C1016.64 1022.07 1010.46 994.913 1003.78 973.439C996.999 952.98 992.609 931.891 990.691 910.544C988.639 889.286 992.034 867.875 1000.59 848.093V848.093C1003.88 841.204 1007.54 834.481 1011.58 827.954C1017.09 819.274 1021.73 810.141 1025.46 800.668C1032.68 780.338 1031.93 757.626 1023.18 731.261C1015.72 708.739 1003.51 686.535 990.59 663.855C915.553 531.733 853.95 393.294 806.597 250.366C798.355 225.494 790.453 199.986 782.856 175.304C781.296 170.264 779.724 165.214 778.142 160.152C774.255 147.435 769.462 134.976 763.795 122.86C757.839 109.779 750.184 97.4351 741.004 86.1076C732.103 75.3314 721.101 66.234 708.581 59.2977C697.09 52.8203 683.971 49.3128 670.561 49.1327C669.611 49.1327 668.662 49.1327 667.712 49.1327C651.874 49.768 635.391 54.5646 617.28 63.8083C573.528 86.044 534.593 116.38 496.98 145.604C396.522 223.683 313.463 289.437 235.83 365.864C192.485 408.43 159.926 445.564 133.37 482.761C100.608 528.598 78.1556 573.133 64.6572 618.907C58.8576 638.601 53.024 664.522 59.2306 690.125C66.5903 720.492 89.3139 744.602 111.291 767.95C119.228 776.336 127.435 785.039 134.795 793.934C173.485 840.966 193.949 898.923 192.825 958.287C192.451 972.359 190.823 986.527 189.196 1000.22C187.11 1015.44 185.853 1030.75 185.431 1046.09C185.194 1070.51 189.84 1104.69 213.14 1129.06C222.913 1139.08 234.968 1146.9 248.412 1151.96C261.734 1157.03 275.87 1159.97 290.231 1160.66C318.754 1162.09 346.836 1155.9 373.12 1149.45C399.405 1143 424.978 1135.95 453.602 1128.04C467.745 1124.13 482.125 1120.07 496.031 1116.16C560.471 1097.99 627.251 1079.19 693.251 1067.66C726.056 1061.76 759.261 1058.01 792.624 1056.44C826.115 1054.86 859.691 1056.32 892.878 1060.83C896.575 1061.33 900.34 1061.91 903.969 1062.45C917.848 1064.89 931.908 1066.33 946.024 1066.73V1066.73Z" stroke="white" stroke-width="2"/>
<path d="M679.54 1.54724C707.317 1.54724 736.315 17.0486 757.547 43.3503C767.491 55.9318 775.707 69.635 782 84.137C787.98 97.5108 793.111 111.204 797.364 125.146V125.527C807.538 158.118 817.713 191.821 828.939 224.667C881.839 382.51 950.683 535.273 1034.54 680.88C1048.98 705.911 1062.65 730.434 1071.06 755.338C1080.93 784.562 1081.85 809.72 1073.91 832.241C1069.81 842.728 1064.69 852.839 1058.62 862.45C1054.18 869.663 1050.13 877.085 1046.51 884.686V884.686C1025.82 930.428 1037.83 982.714 1050.58 1023.12C1058.14 1047.01 1065.13 1077.12 1052.24 1098.85C1045.25 1110.54 1032.87 1118.73 1015.41 1123.21C991.158 1129.56 965.212 1125.53 940.183 1121.72L927.668 1119.84C890.8 1114.71 853.483 1112.99 816.255 1114.7C779.129 1116.43 742.181 1120.62 705.69 1127.25C632.228 1140.17 558.088 1161.33 486.391 1181.76C471.976 1185.85 457.087 1190.11 442.3 1194.21C412.149 1202.69 382.676 1210.88 353.339 1218.19C326.987 1224.8 299.074 1231.12 270.415 1231.12C267.476 1231.12 264.525 1231.05 261.563 1230.93C245.639 1230.2 229.957 1226.98 215.167 1221.4C200.243 1215.8 186.863 1207.11 176.028 1195.99C150.184 1168.99 145.097 1131.06 145.504 1103.87C145.982 1086.99 147.374 1070.14 149.676 1053.39C151.507 1038.24 153.372 1022.55 153.779 1006.95C155.075 941.339 132.333 877.292 89.3395 825.475C81.1319 815.66 72.0087 806.035 63.1907 796.728C38.7035 770.966 13.3685 744.315 5.09306 710.676C-1.85965 682.341 4.58429 653.498 10.9944 631.739C25.7477 581.2 50.4043 532.059 86.3549 481.489C115.59 440.194 151.371 399.312 198.921 352.458C291.206 261.673 395.7 180.481 488.12 108.533C529.803 76.1321 572.909 42.6197 621.375 17.8428C642.131 7.26491 659.937 1.96012 677.404 1.57894L679.54 1.54724ZM987.258 1126.04C996.762 1126.18 1006.24 1125.11 1015.44 1122.86C1032.81 1118.41 1045.12 1110.16 1052.04 1098.66C1064.86 1077.09 1057.87 1047.01 1050.37 1023.18C1042.73 1000.56 1037.77 977.222 1035.59 953.585C1033.65 927.378 1037.15 904.793 1046.3 884.527C1049.94 876.929 1053.98 869.508 1058.41 862.291C1064.49 852.709 1069.6 842.617 1073.67 832.146C1081.61 809.688 1080.7 784.498 1070.86 755.433C1062.45 730.561 1048.78 706.038 1034.33 681.039C950.468 535.41 881.613 382.627 828.702 224.762C817.679 191.917 807.233 158.055 797.126 125.591V125.241C792.863 111.313 787.733 97.6304 781.762 84.264C775.473 69.7866 767.269 56.1055 757.343 43.541C736.214 17.3346 707.317 1.86482 679.642 1.86482H677.506C660.107 2.37306 642.335 7.51909 621.646 18.0969C573.181 42.8421 530.074 76.3545 488.459 108.723C396.141 180.513 291.545 261.864 199.26 352.808C151.778 399.63 115.93 440.607 86.6942 481.775C50.7775 532.345 26.1207 581.454 11.3674 631.929C4.99123 653.752 -1.45268 682.436 5.50003 710.707C13.7755 744.283 39.0426 771.061 63.4958 796.664C72.3478 805.971 81.4712 815.723 89.6788 825.253C132.701 877.128 155.445 941.244 154.119 1006.92C153.712 1022.52 151.846 1038.21 150.015 1053.39C147.713 1070.13 146.321 1086.96 145.843 1103.83C145.538 1130.84 150.625 1168.7 176.367 1195.6C187.142 1206.74 200.48 1215.43 215.37 1221.02C230.113 1226.59 245.75 1229.82 261.631 1230.55C264.582 1230.55 267.567 1230.74 270.483 1230.74C299.04 1230.74 326.987 1224.38 353.339 1217.84C382.643 1210.5 412.149 1202.31 442.266 1193.86L486.357 1181.41C558.054 1160.95 632.194 1139.82 705.69 1126.86C742.2 1120.18 779.17 1115.94 816.323 1114.16C853.64 1112.43 891.048 1114.14 928.007 1119.27L940.488 1121.15C955.913 1123.96 971.552 1125.63 987.258 1126.13V1126.04Z" stroke="white" stroke-width="2"/>
</g>
<defs>
<clipPath id="clip0_513_13379">
<rect width="1081" height="1232" fill="white"/>
</clipPath>
</defs>
</svg>
