<svg width="19" height="18" viewBox="0 0 19 18" fill="none" xmlns="http://www.w3.org/2000/svg">
<path d="M14.1645 2.44122L13.8999 1.89167L13.2918 1.93933L5.88553 2.51977L5.44117 2.5546L5.20243 2.931L2.07304 7.86481L1.81474 8.27205L2.01427 8.71108L4.91607 15.096L5.13423 15.5761L5.66001 15.616L13.2938 16.1965L13.9287 16.2448L14.1803 15.6599L17.0157 9.06762L17.1762 8.69453L16.9999 8.32862L14.1645 2.44122Z" fill="#C4C4C4" stroke="#333333" stroke-width="1.78281"/>
<g filter="url(#filter0_i_1824_6762)">
<path d="M13.3614 2.82806L5.95518 3.40851L2.82579 8.34232L5.72759 14.7273L13.3614 15.3077L16.1968 8.71547L13.3614 2.82806Z" fill="url(#paint0_linear_1824_6762)"/>
</g>
<defs>
<filter id="filter0_i_1824_6762" x="2.82579" y="2.82806" width="13.371" height="12.4796" filterUnits="userSpaceOnUse" color-interpolation-filters="sRGB">
<feFlood flood-opacity="0" result="BackgroundImageFix"/>
<feBlend mode="normal" in="SourceGraphic" in2="BackgroundImageFix" result="shape"/>
<feColorMatrix in="SourceAlpha" type="matrix" values="0 0 0 0 0 0 0 0 0 0 0 0 0 0 0 0 0 0 127 0" result="hardAlpha"/>
<feOffset dx="-0.445701" dy="1.3371"/>
<feComposite in2="hardAlpha" operator="arithmetic" k2="-1" k3="1"/>
<feColorMatrix type="matrix" values="0 0 0 0 0.9375 0 0 0 0 0.9375 0 0 0 0 0.9375 0 0 0 0.25 0"/>
<feBlend mode="normal" in2="shape" result="effect1_innerShadow_1824_6762"/>
</filter>
<linearGradient id="paint0_linear_1824_6762" x1="9.51131" y1="2.82806" x2="9.51131" y2="15.3077" gradientUnits="userSpaceOnUse">
<stop offset="0.286458" stop-color="#B7B7B7"/>
<stop offset="1" stop-color="#9B9B9B"/>
</linearGradient>
</defs>
</svg>
