<svg width="91" height="92" viewBox="0 0 91 92" fill="none" xmlns="http://www.w3.org/2000/svg">
<rect x="5.5" y="6" width="80" height="80" rx="37.625" fill="#D1FADF"/>
<path d="M58.5625 44.8887V46.125C58.5609 49.0227 57.6225 51.8422 55.8875 54.163C54.1525 56.4839 51.7138 58.1817 48.935 59.0033C46.1562 59.8249 43.1863 59.7263 40.4682 58.7221C37.7501 57.7179 35.4294 55.8619 33.8522 53.431C32.2751 51.0001 31.526 48.1246 31.7166 45.2331C31.9073 42.3417 33.0275 39.5894 34.9102 37.3867C36.7929 35.1839 39.3372 33.6488 42.1636 33.0102C44.9901 32.3716 47.9472 32.6637 50.5941 33.8431M58.5625 35.375L45.125 48.8259L41.0938 44.7947" stroke="#039855" stroke-width="2.6875" stroke-linecap="round" stroke-linejoin="round"/>
<rect x="5.5" y="6" width="80" height="80" rx="37.625" stroke="#ECFDF3" stroke-width="10.75"/>
</svg>
